<svg width="144" height="37" viewBox="0 0 144 37" fill="none" xmlns="http://www.w3.org/2000/svg">
    <path fill-rule="evenodd" clip-rule="evenodd" d="M10.75 30.5C10.7285 24.5702 5.92384 19.7699 0 19.7699C5.93706 19.7699 10.75 14.948 10.75 9C10.7714 14.9298 15.5762 19.7301 21.5 19.7301C15.5628 19.7301 10.75 24.552 10.75 30.5Z" fill="#EE683E"/>
    <path d="M54.608 7.844V8.484C53.9253 8.50533 53.4133 8.59067 53.072 8.74C52.7307 8.868 52.496 9.124 52.368 9.508C52.2613 9.87067 52.208 10.4467 52.208 11.236V27.108C52.208 27.876 52.2613 28.452 52.368 28.836C52.496 29.22 52.7307 29.476 53.072 29.604C53.4133 29.732 53.9253 29.8173 54.608 29.86V30.5C54.0107 30.4573 53.2533 30.436 52.336 30.436C51.44 30.4147 50.5227 30.404 49.584 30.404C48.56 30.404 47.6 30.4147 46.704 30.436C45.808 30.436 45.0827 30.4573 44.528 30.5V29.86C45.2533 29.8173 45.7973 29.732 46.16 29.604C46.544 29.476 46.8 29.22 46.928 28.836C47.056 28.452 47.12 27.876 47.12 27.108V9.796H47.344L39.408 30.532H38.896L30.256 9.924V25.252C30.256 26.4253 30.32 27.332 30.448 27.972C30.576 28.5907 30.8533 29.0387 31.28 29.316C31.728 29.572 32.4213 29.7533 33.36 29.86V30.5C32.9547 30.4573 32.4213 30.436 31.76 30.436C31.0987 30.4147 30.48 30.404 29.904 30.404C29.4133 30.404 28.912 30.4147 28.4 30.436C27.888 30.436 27.4613 30.4573 27.12 30.5V29.86C27.8027 29.7533 28.3147 29.572 28.656 29.316C28.9973 29.06 29.2213 28.644 29.328 28.068C29.456 27.4707 29.52 26.66 29.52 25.636V11.236C29.52 10.4467 29.456 9.87067 29.328 9.508C29.2213 9.124 28.9867 8.868 28.624 8.74C28.2827 8.59067 27.7813 8.50533 27.12 8.484V7.844C27.4613 7.86533 27.888 7.88667 28.4 7.908C28.912 7.92933 29.4133 7.94 29.904 7.94C30.8213 7.94 31.7173 7.92933 32.592 7.908C33.488 7.88667 34.2773 7.86533 34.96 7.844L41.68 24.068L40.88 24.804L47.312 7.94C47.6747 7.94 48.048 7.94 48.432 7.94C48.816 7.94 49.2 7.94 49.584 7.94C50.5227 7.94 51.44 7.92933 52.336 7.908C53.2533 7.88667 54.0107 7.86533 54.608 7.844ZM72.2122 13.956V14.596C71.8069 14.7027 71.4229 14.9587 71.0603 15.364C70.6976 15.748 70.3456 16.4093 70.0043 17.348L65.4922 30.02L64.3082 32.26L57.3322 16.42C56.9696 15.588 56.6069 15.0867 56.2442 14.916C55.9029 14.724 55.6042 14.628 55.3482 14.628V13.956C56.0522 14.02 56.7776 14.0733 57.5242 14.116C58.2922 14.1373 59.0282 14.148 59.7322 14.148C60.6069 14.148 61.4069 14.1267 62.1322 14.084C62.8576 14.0413 63.5402 13.9987 64.1803 13.956V14.628C63.7536 14.628 63.3482 14.66 62.9642 14.724C62.6016 14.7667 62.3456 14.916 62.1962 15.172C62.0682 15.4067 62.1322 15.8227 62.3882 16.42L66.4202 26.148L66.1322 26.34L68.5002 19.716C68.9056 18.564 69.0762 17.6253 69.0122 16.9C68.9483 16.1533 68.7136 15.5987 68.3083 15.236C67.9029 14.852 67.3482 14.6387 66.6442 14.596V13.956C66.9856 13.9773 67.3376 13.9987 67.7002 14.02C68.0629 14.02 68.4256 14.0307 68.7882 14.052C69.1509 14.052 69.4709 14.052 69.7483 14.052C70.1749 14.052 70.6229 14.0413 71.0922 14.02C71.5616 13.9987 71.9349 13.9773 72.2122 13.956ZM65.4922 30.02L64.2762 33.444C64.0629 33.9773 63.8389 34.4253 63.6042 34.788C63.3909 35.172 63.1456 35.4813 62.8682 35.716C62.5696 35.972 62.1856 36.164 61.7162 36.292C61.2469 36.4413 60.7029 36.516 60.0842 36.516C59.5722 36.516 59.0389 36.4307 58.4842 36.26C57.9509 36.0893 57.5029 35.812 57.1402 35.428C56.7776 35.044 56.5962 34.5533 56.5962 33.956C56.5962 33.2947 56.8309 32.7613 57.3002 32.356C57.7696 31.972 58.3882 31.78 59.1562 31.78C59.8602 31.78 60.4362 31.9507 60.8842 32.292C61.3322 32.6333 61.5562 33.1347 61.5562 33.796C61.5562 34.2227 61.4176 34.628 61.1402 35.012C60.8842 35.396 60.4896 35.684 59.9562 35.876C60.0629 35.8973 60.1909 35.908 60.3402 35.908C60.4896 35.908 60.6069 35.908 60.6922 35.908C61.3322 35.908 61.8976 35.7053 62.3882 35.3C62.8789 34.8947 63.2842 34.2547 63.6042 33.38L64.7242 30.084L65.4922 30.02ZM90.6442 7.844C90.5589 8.804 90.4949 9.732 90.4522 10.628C90.4309 11.524 90.4202 12.2173 90.4202 12.708C90.4202 13.1773 90.4309 13.6253 90.4522 14.052C90.4736 14.4787 90.4949 14.8413 90.5162 15.14H89.7803C89.5029 13.476 89.1189 12.1747 88.6283 11.236C88.1376 10.276 87.5296 9.59333 86.8042 9.188C86.1002 8.78267 85.2576 8.58 84.2762 8.58H83.2202C82.6016 8.58 82.1322 8.63333 81.8122 8.74C81.4922 8.84667 81.2789 9.06 81.1722 9.38C81.0656 9.7 81.0122 10.1907 81.0122 10.852V26.916C81.0122 27.748 81.0976 28.3667 81.2682 28.772C81.4389 29.1773 81.7696 29.444 82.2602 29.572C82.7509 29.7 83.4762 29.7747 84.4362 29.796V30.5C83.7749 30.4787 82.9216 30.4573 81.8762 30.436C80.8309 30.4147 79.7322 30.404 78.5802 30.404C77.6629 30.404 76.7669 30.4147 75.8922 30.436C75.0176 30.4573 74.2282 30.4787 73.5242 30.5V29.86C74.2069 29.8173 74.7189 29.732 75.0602 29.604C75.4016 29.476 75.6256 29.22 75.7322 28.836C75.8602 28.452 75.9242 27.876 75.9242 27.108V11.236C75.9242 10.4467 75.8602 9.87067 75.7322 9.508C75.6256 9.124 75.3909 8.868 75.0282 8.74C74.6869 8.59067 74.1856 8.50533 73.5242 8.484V7.844C74.3989 7.86533 75.3269 7.88667 76.3082 7.908C77.2896 7.908 78.2602 7.91867 79.2202 7.94C80.1802 7.94 81.0762 7.94 81.9082 7.94C82.7402 7.94 83.4229 7.94 83.9562 7.94C84.9376 7.94 86.0469 7.94 87.2842 7.94C88.5429 7.91867 89.6629 7.88667 90.6442 7.844ZM85.8762 18.916C85.8762 18.916 85.8762 19.0227 85.8762 19.236C85.8762 19.4493 85.8762 19.556 85.8762 19.556H80.0522C80.0522 19.556 80.0522 19.4493 80.0522 19.236C80.0522 19.0227 80.0522 18.916 80.0522 18.916H85.8762ZM86.6762 14.692C86.5909 15.908 86.5482 16.836 86.5482 17.476C86.5696 18.116 86.5802 18.7027 86.5802 19.236C86.5802 19.7693 86.5909 20.356 86.6122 20.996C86.6336 21.636 86.6869 22.564 86.7722 23.78H86.0362C85.9082 23.0333 85.7056 22.34 85.4282 21.7C85.1509 21.06 84.7456 20.548 84.2122 20.164C83.6789 19.7587 82.9856 19.556 82.1322 19.556V18.916C82.7722 18.916 83.3056 18.788 83.7322 18.532C84.1802 18.2547 84.5536 17.9027 84.8522 17.476C85.1509 17.028 85.3856 16.5587 85.5562 16.068C85.7269 15.5773 85.8549 15.1187 85.9402 14.692H86.6762ZM100.225 13.508C102.103 13.508 103.575 14.0627 104.641 15.172C105.708 16.2813 106.241 18.0947 106.241 20.612H95.7132L95.6492 20.004H102.209C102.231 18.9587 102.167 17.9987 102.017 17.124C101.868 16.228 101.633 15.5133 101.313 14.98C100.993 14.4467 100.567 14.18 100.033 14.18C99.2866 14.18 98.6466 14.6493 98.1132 15.588C97.6012 16.5267 97.2919 18.084 97.1852 20.26L97.2812 20.452C97.2599 20.708 97.2386 20.9747 97.2172 21.252C97.2172 21.5293 97.2172 21.8173 97.2172 22.116C97.2172 23.588 97.4199 24.7827 97.8252 25.7C98.2519 26.6173 98.7852 27.2893 99.4252 27.716C100.065 28.1213 100.716 28.324 101.377 28.324C101.825 28.324 102.284 28.26 102.753 28.132C103.244 27.9827 103.735 27.7267 104.225 27.364C104.716 26.98 105.175 26.4467 105.601 25.764L106.177 25.956C105.921 26.7667 105.516 27.556 104.961 28.324C104.407 29.092 103.703 29.7213 102.849 30.212C101.996 30.7027 100.972 30.948 99.7772 30.948C98.3266 30.948 97.0466 30.6387 95.9372 30.02C94.8279 29.4013 93.9532 28.4627 93.3132 27.204C92.6946 25.9453 92.3852 24.3453 92.3852 22.404C92.3852 20.42 92.7159 18.7667 93.3772 17.444C94.0599 16.1213 94.9879 15.14 96.1612 14.5C97.3559 13.8387 98.7106 13.508 100.225 13.508ZM116.99 13.508C118.868 13.508 120.34 14.0627 121.406 15.172C122.473 16.2813 123.006 18.0947 123.006 20.612H112.478L112.414 20.004H118.974C118.996 18.9587 118.932 17.9987 118.782 17.124C118.633 16.228 118.398 15.5133 118.078 14.98C117.758 14.4467 117.332 14.18 116.798 14.18C116.052 14.18 115.412 14.6493 114.878 15.588C114.366 16.5267 114.057 18.084 113.95 20.26L114.046 20.452C114.025 20.708 114.004 20.9747 113.982 21.252C113.982 21.5293 113.982 21.8173 113.982 22.116C113.982 23.588 114.185 24.7827 114.59 25.7C115.017 26.6173 115.55 27.2893 116.19 27.716C116.83 28.1213 117.481 28.324 118.142 28.324C118.59 28.324 119.049 28.26 119.518 28.132C120.009 27.9827 120.5 27.7267 120.99 27.364C121.481 26.98 121.94 26.4467 122.366 25.764L122.942 25.956C122.686 26.7667 122.281 27.556 121.726 28.324C121.172 29.092 120.468 29.7213 119.614 30.212C118.761 30.7027 117.737 30.948 116.542 30.948C115.092 30.948 113.812 30.6387 112.702 30.02C111.593 29.4013 110.718 28.4627 110.078 27.204C109.46 25.9453 109.15 24.3453 109.15 22.404C109.15 20.42 109.481 18.7667 110.142 17.444C110.825 16.1213 111.753 15.14 112.926 14.5C114.121 13.8387 115.476 13.508 116.99 13.508ZM141.243 5.444V26.98C141.243 27.94 141.393 28.6547 141.691 29.124C141.99 29.572 142.523 29.796 143.291 29.796V30.468C142.63 30.404 141.969 30.372 141.307 30.372C140.411 30.372 139.569 30.404 138.779 30.468C138.011 30.532 137.297 30.6493 136.635 30.82V9.284C136.635 8.324 136.486 7.62 136.187 7.172C135.91 6.70267 135.377 6.468 134.587 6.468V5.796C135.27 5.86 135.931 5.892 136.571 5.892C137.446 5.892 138.278 5.86 139.067 5.796C139.857 5.71067 140.582 5.59333 141.243 5.444ZM133.083 13.508C134.022 13.508 134.843 13.668 135.547 13.988C136.273 14.2867 136.838 14.7987 137.243 15.524L136.859 15.876C136.582 15.364 136.209 15.0013 135.739 14.788C135.291 14.5533 134.811 14.436 134.299 14.436C133.211 14.436 132.347 15.076 131.707 16.356C131.067 17.6147 130.758 19.5667 130.779 22.212C130.779 24.0253 130.897 25.476 131.131 26.564C131.387 27.6307 131.739 28.3987 132.187 28.868C132.657 29.3373 133.19 29.572 133.787 29.572C134.513 29.572 135.163 29.284 135.739 28.708C136.315 28.132 136.625 27.3533 136.667 26.372L136.827 27.492C136.507 28.6227 135.985 29.4867 135.259 30.084C134.555 30.66 133.627 30.948 132.475 30.948C131.217 30.948 130.086 30.6387 129.083 30.02C128.102 29.4013 127.334 28.452 126.779 27.172C126.225 25.8707 125.947 24.196 125.947 22.148C125.947 20.2067 126.257 18.6067 126.875 17.348C127.494 16.068 128.337 15.108 129.403 14.468C130.491 13.828 131.718 13.508 133.083 13.508Z" fill="#212121"/>
</svg>
